<svg id="Layer_3" enable-background="new 0 0 64 64" height="512" viewBox="0 0 64 64" width="512" xmlns="http://www.w3.org/2000/svg"><path d="m6 40c0-14.359 11.641-26 26-26 14.359 0 26 11.641 26 26z" fill="#98775a"/><path d="m30.5 14.046c-13.661.778-24.5 12.098-24.5 25.954h49c0-13.856-10.839-25.176-24.5-25.954z" fill="#cb9e78"/><path d="m57.296 34h-50.592c-.456 1.927-.704 3.934-.704 6h52c0-2.066-.248-4.073-.704-6z" fill="#ba9b50"/><path d="m54.296 34h-47.592c-.456 1.927-.704 3.934-.704 6h49c0-2.066-.248-4.073-.704-6z" fill="#f8cf6a"/><path d="m50 41c-.256 0-.512-.098-.707-.293l-5.293-5.293-5.293 5.293c-.391.391-1.023.391-1.414 0l-5.293-5.293-5.293 5.293c-.391.391-1.023.391-1.414 0l-5.293-5.293-5.293 5.293c-.391.391-1.023.391-1.414 0l-6-6 1.414-1.414 5.293 5.293 5.293-5.293c.391-.391 1.023-.391 1.414 0l5.293 5.293 5.293-5.293c.391-.391 1.023-.391 1.414 0l5.293 5.293 5.293-5.293c.391-.391 1.023-.391 1.414 0l5.293 5.293 5.293-5.293 1.414 1.414-6 6c-.195.195-.451.293-.707.293z" fill="#664f3c"/><path d="m4 40h56v18h-56z" fill="#737373"/><path d="m4 40h53v18h-53z" fill="#999"/><path d="m10 50h8v8h-8z" fill="#98775a"/><path d="m10 50h5v8h-5z" fill="#cb9e78"/><path d="m22 50h8v8h-8z" fill="#98775a"/><path d="m22 50h5v8h-5z" fill="#cb9e78"/><path d="m34 50h8v8h-8z" fill="#98775a"/><path d="m34 50h5v8h-5z" fill="#cb9e78"/><path d="m46 50h8v8h-8z" fill="#98775a"/><path d="m46 50h5v8h-5z" fill="#cb9e78"/><path d="m2 58h60v4h-60z" fill="#4c4d4c"/><path d="m2 58h57v4h-57z" fill="#656665"/><path d="m59 12c1.657 0 3-1.343 3-3 0-1.311-.846-2.414-2.018-2.822.003-.06.018-.117.018-.178 0-2.209-1.791-4-4-4s-4 1.791-4 4c0 .065.016.125.019.19-.319-.116-.659-.19-1.019-.19-1.657 0-3 1.343-3 3s1.343 3 3 3z" fill="#699ce6"/><path d="m5 15c-1.657 0-3-1.343-3-3 0-1.311.846-2.414 2.018-2.822-.003-.06-.018-.117-.018-.178 0-2.209 1.791-4 4-4s4 1.791 4 4c0 .065-.016.125-.019.19.319-.116.659-.19 1.019-.19 1.657 0 3 1.343 3 3s-1.343 3-3 3z" fill="#699ce6"/><path d="m6.485 35h51.029c-.132-.677-.292-1.343-.476-2h-50.077c-.183.657-.344 1.323-.476 2z" fill="#664f3c"/><path d="m4 45h56v2h-56z" fill="#bfbfbf"/></svg>